# xmcd
#
# Track frame offsets:
#	150
#	24510
#	37395
#	55823
#	67943
#	80493
#	96555
#	116118
#	134923
#	147080
#	158848
#	170255
#	186768
#	211098
#	228653
#	241805
#	255735
#	269135
#	283325
#	298508
#	308985
#	313328
#	319635
#
# Disc length: 4598 seconds
#
# Revision: 1732367495
# Processed by: cddbd v1.5.2PL0 Copyright (c) Steve Scherf et al.
# Submitted via: EZCDAudioConverter 9.1.1.1
#
DISCID=6a11f417
DTITLE=Dolly Parton - Heartsongs Live From Home
DYEAR=1994
DGENRE=Country
TTITLE0=Heartsong
TTITLE1=I'm Thinking Tonight Of My Blue Eyes
TTITLE2=Mary Of The Wild Moor
TTITLE3=In The Pines
TTITLE4=My Blue Tears
TTITLE5=Applejack
TTITLE6=Coat Of Many Colors
TTITLE7=Smoky Mountain Memories
TTITLE8=Night Train To Memphis
TTITLE9=What A Friend We Have In Jesus
TTITLE10=Hold Fast To The Right
TTITLE11=Walter Henry Hagan
TTITLE12=Barbara Allen
TTITLE13=Brave Little Soldier
TTITLE14=To Daddy
TTITLE15=True Blue
TTITLE16=Longer Than Always
TTITLE17=Wayfaring Stranger
TTITLE18=My Tennessee Mountain Home
TTITLE19=Heartsong (Reprise)
TTITLE20=Cas Walker Theme
TTITLE21=Black Draught Theme
TTITLE22=PMS Blues
EXTD=
EXTT0=
EXTT1=
EXTT2=
EXTT3=
EXTT4=
EXTT5=
EXTT6=
EXTT7=
EXTT8=
EXTT9=
EXTT10=
EXTT11=
EXTT12=
EXTT13=
EXTT14=
EXTT15=
EXTT16=
EXTT17=
EXTT18=
EXTT19=
EXTT20=
EXTT21=
EXTT22=
PLAYORDER=
